<svg xmlns="http://www.w3.org/2000/svg" xmlns:xlink="http://www.w3.org/1999/xlink" viewBox="0 0 1600 602.63"><defs><style>.cls-1,.cls-13,.cls-14,.cls-15{fill:none;}.cls-2{fill:#e1d1ff;}.cls-3{fill:#6c40bf;}.cls-4{fill:#c5a6ff;}.cls-5{fill:#ffabba;}.cls-6{fill:#ff7e93;}.cls-7{fill:#e5d3ff;}.cls-8{fill:#dfc6ff;}.cls-9{fill:#ff4074;}.cls-10{fill:#a48ae9;}.cls-11{fill:#341239;}.cls-12{fill:#5828b4;}.cls-13{stroke:#341239;}.cls-13,.cls-14,.cls-15{stroke-miterlimit:10;}.cls-13,.cls-15{stroke-width:0.25px;}.cls-14{stroke:#ff6c99;stroke-width:0.52px;}.cls-15{stroke:#c5a6ff;}.cls-16{fill:#fff;}.cls-17{fill:url(#linear-gradient);}</style><linearGradient id="linear-gradient" y1="298.68" x2="1600" y2="298.68" gradientUnits="userSpaceOnUse"><stop offset="0" stop-color="#ff9000"/><stop offset="0.99" stop-color="#ff9100"/></linearGradient></defs><g id="Layer_2" data-name="Layer 2"><path class="cls-1" d="M479.84,510.2l2.66,4.54q-1.06-2.21-2.12-4.52Z" transform="translate(0 2.63)"/><path class="cls-2" d="M427.37,547.63c5.46,13.92,13.54,26.29,18.33,31.65l45.15-.32L471.3,547.63Z" transform="translate(0 2.63)"/><path class="cls-2" d="M450,513.54l-27.17-1.88c-2.92,10.71-.24,23.72,4.39,35.62h43.84Z" transform="translate(0 2.63)"/><path class="cls-2" d="M543,578.59l19.74-.14s-1.55-10.22-4.92-24.75l-17.42,18.84Z" transform="translate(0 2.63)"/><path class="cls-2" d="M490.31,456.71c-13.18,2-18.11,9.94-18.54,20l28,2.12Z" transform="translate(0 2.63)"/><polygon class="cls-2" points="520.11 581.38 542.68 581.23 532.41 557.33 505.98 557.33 520.11 581.38"/><path class="cls-2" d="M540.29,572.2l17.47-18.9a325.46,325.46,0,0,0-14.61-47.43l-19.9,26.66Z" transform="translate(0 2.63)"/><polygon class="cls-2" points="496.08 541.14 481.68 566.26 491.24 581.59 519.72 581.39 496.08 541.14"/><path class="cls-2" d="M523.1,532.17,543,505.51c-5.21-12.74-11.53-24.76-19.08-33.75l-15.61,26Z" transform="translate(0 2.63)"/><path class="cls-2" d="M500,479.19l-28.21-2.13c-.33,10.07,3.73,22.22,8.47,32.8L513.65,511Z" transform="translate(0 2.63)"/><path class="cls-2" d="M523.7,471.5c-8.38-9.87-18.27-16-29.81-15.2-1.13.07-2.21.2-3.25.35l17.51,40.74Z" transform="translate(0 2.63)"/><path class="cls-2" d="M481.48,563.31l14.4-25.13-14.47-24.65A74.55,74.55,0,0,0,467.9,499L460,528.85Z" transform="translate(0 2.63)"/><path class="cls-2" d="M482.5,514.74l23.28,39.62h26.49l-18.47-43-33.42-1.16Q481.43,512.53,482.5,514.74Z" transform="translate(0 2.63)"/><path class="cls-2" d="M467.61,498.74c-8.47-6.61-18.53-10-29.48-4.88l21.6,34.61Z" transform="translate(0 2.63)"/><path class="cls-2" d="M437.83,494c-.55.26-1.11.54-1.66.85a26.64,26.64,0,0,0-13.23,16.46l26.86,1.86Z" transform="translate(0 2.63)"/><path class="cls-3" d="M481.68,563.63l-.05.09-.29-.17.14-.24L460,528.85l0,.08-.32-.09.1-.37-21.6-34.61-.3.15,12,19.17.33,0,0,.35H450l21.06,33.74h.31v.35h-.09L490.85,579h.39Z" transform="translate(0 2.63)"/><path class="cls-3" d="M540.36,572.62l-.24-.24.17-.18-17-39.67-.06.08-.26-.21.17-.23-14.78-34.4-.05.08-.28-.18.16-.28-17.51-40.74-.33.06,9.5,22.12.28,0,0,.34H500L513.65,511h.26v.35h-.1l18.47,43h.25v.34h-.11l10.27,23.9H543l-2.6-6.05Z" transform="translate(0 2.63)"/><path class="cls-3" d="M495.94,538.09l.28.17-.14.25,23.64,40.25h.39L506,554.7h-.3v-.34h.1L482.5,514.74c.18.36.36.73.53,1.09-.52-.77-1.07-1.53-1.62-2.3l14.47,24.65Z" transform="translate(0 2.63)"/><path class="cls-3" d="M449.8,513.18l-26.86-1.86-.09.34L450,513.54Z" transform="translate(0 2.63)"/><polygon class="cls-3" points="450.11 516.18 450.13 515.83 449.8 515.81 450.02 516.17 450.11 516.18"/><path class="cls-3" d="M460,528.85,467.9,499l-.29-.23-7.88,29.73Z" transform="translate(0 2.63)"/><polygon class="cls-3" points="459.63 531.47 459.95 531.56 459.97 531.48 459.73 531.1 459.63 531.47"/><path class="cls-3" d="M471.08,547.28H427.24c0,.12.09.23.13.35H471.3Z" transform="translate(0 2.63)"/><polygon class="cls-3" points="471.39 550.26 471.39 549.91 471.08 549.91 471.3 550.26 471.39 550.26"/><polygon class="cls-3" points="495.88 540.81 481.48 565.94 481.68 566.26 496.08 541.14 495.88 540.81"/><polygon class="cls-3" points="481.34 566.18 481.63 566.36 481.68 566.26 481.48 565.94 481.34 566.18"/><polygon class="cls-3" points="496.22 540.89 495.94 540.72 495.88 540.81 496.08 541.14 496.22 540.89"/><path class="cls-3" d="M499.81,478.83l-28-2.12c0,.12,0,.23,0,.35L500,479.19Z" transform="translate(0 2.63)"/><polygon class="cls-3" points="500.06 481.82 500.09 481.48 499.81 481.46 499.96 481.82 500.06 481.82"/><path class="cls-3" d="M508.32,497.77l15.61-26-.23-.26-15.55,25.89Z" transform="translate(0 2.63)"/><polygon class="cls-3" points="507.99 500.3 508.27 500.48 508.32 500.4 508.15 500.02 507.99 500.3"/><path class="cls-3" d="M513.8,511.38l-.15-.36-33.42-1.16.15.36Z" transform="translate(0 2.63)"/><polygon class="cls-3" points="513.9 514.01 513.91 513.66 513.65 513.65 513.8 514.01 513.9 514.01"/><path class="cls-3" d="M523.25,532.53l19.9-26.66-.14-.36L523.1,532.17Z" transform="translate(0 2.63)"/><polygon class="cls-3" points="522.93 535.03 523.19 535.24 523.25 535.16 523.1 534.8 522.93 535.03"/><polygon class="cls-3" points="505.98 557.33 532.41 557.33 532.27 556.99 505.78 556.99 505.98 557.33"/><polygon class="cls-3" points="532.52 557.33 532.52 556.99 532.27 556.99 532.41 557.33 532.52 557.33"/><polygon class="cls-3" points="505.68 556.99 505.68 557.33 505.98 557.33 505.78 556.99 505.68 556.99"/><polygon class="cls-3" points="1029.26 484.3 1029.33 479.72 1027.9 484.3 1029.26 484.3"/><polygon class="cls-1" points="534.02 599.11 533.97 598.19 533.78 598.2 534.02 599.11"/><path class="cls-3" d="M530.11,504.71l4.19,90.83,2.43-.11S543.2,506.16,530.11,504.71Z" transform="translate(0 2.63)"/><path class="cls-3" d="M534,595.56l-4.19-90.87h-.13c-6.41.29-6,20.15-3.75,41.23-4.34-24.52-10.35-48.72-17-47.43l24.9,97.09Z" transform="translate(0 2.63)"/><path class="cls-3" d="M529.28,595.1l.06,0,.32.88,2.54-.59L487.08,515.6C477.78,524.82,529.28,595.1,529.28,595.1Z" transform="translate(0 2.63)"/><path class="cls-3" d="M532.89,595.2l.53.38h0l-24.88-97c-7,2.27.05,31.46,7.84,57.31-10-21.84-22.25-44.42-28.69-40.78a2.6,2.6,0,0,0-.38.27l45.21,79.91Z" transform="translate(0 2.63)"/><path class="cls-4" d="M487.08,515.6a2.73,2.73,0,0,1,.25-.23l-1.24-2.2" transform="translate(0 2.63)"/><path class="cls-4" d="M487.33,515.37a2.73,2.73,0,0,0-.25.23l45.12,79.76.34-.08Z" transform="translate(0 2.63)"/><path class="cls-4" d="M533.78,595.57l-24.9-97.09h-.11l-.21.08,24.88,97Z" transform="translate(0 2.63)"/><path class="cls-4" d="M529.78,504.69,534,595.56l.33,0-4.19-90.83Z" transform="translate(0 2.63)"/><path class="cls-4" d="M518.22,441.73c-22.1,5.28,32.17,146.6,32.17,146.6l.11,0c.08,1,.13,1.55.13,1.55l3.93.22L519,441.64A5.46,5.46,0,0,0,518.22,441.73Z" transform="translate(0 2.63)"/><path class="cls-4" d="M556.1,590.15l.68.85.73.18L558.78,425c-12.47-.58-13.66,49.71-12.22,94.89-6.44-38.15-15.91-78.36-27.22-78.32l35.57,148.49Z" transform="translate(0 2.63)"/><path class="cls-4" d="M559,591.54l30.66-146.93-.24-.08c-10.32-2.5-18.12,29.31-23.51,63.91,3.51-40.89,4.25-82-6.8-83.36l-1.27,166.18Z" transform="translate(0 2.63)"/><path class="cls-4" d="M590,444.73,559.32,591.62l2.79.68S610.64,452.39,590,444.73Z" transform="translate(0 2.63)"/><path class="cls-3" d="M557.84,591.26l1.27-166.18c-.1,0-.19-.05-.29-.06h0l-1.27,166.15Z" transform="translate(0 2.63)"/><path class="cls-3" d="M519.34,441.6c-.11,0-.22,0-.33,0l35.55,148.43.35,0Z" transform="translate(0 2.63)"/><path class="cls-3" d="M589.66,444.61,559,591.54l.32.08L590,444.73Z" transform="translate(0 2.63)"/><polygon class="cls-4" points="1029.33 479.72 1029.26 484.3 1029.59 484.3 1029.68 478.6 1029.33 479.72"/><path class="cls-3" d="M1064.53,458.2,1029.68,570l-.09,5.7h2.31l.17-1.25.09,0S1080.11,466.1,1064.53,458.2Z" transform="translate(0 2.63)"/><path class="cls-3" d="M1022.57,577.12l3.55-.67L1005,457.71C990.56,467.45,1022.57,577.12,1022.57,577.12Z" transform="translate(0 2.63)"/><path class="cls-3" d="M1026.91,576.31l.58-.66h.06l1.8-5.76,2-127.1c-8.68,1.25-9.7,34-8.52,66.72-3-28.06-8-54-16.36-52.41a3.8,3.8,0,0,0-1.19.45l21.15,118.84Z" transform="translate(0 2.63)"/><path class="cls-3" d="M1064.22,458.08a3.88,3.88,0,0,0-.36-.15c-9.38-2.77-19,30.26-25.9,61.65,3-36.3,4-76.85-6.08-76.85l-.18,0-2,126Z" transform="translate(0 2.63)"/><path class="cls-4" d="M1005,457.71l.31-.16" transform="translate(0 2.63)"/><path class="cls-4" d="M1005.3,457.55l-.31.16,21.13,118.74.33-.06Z" transform="translate(0 2.63)"/><path class="cls-4" d="M1029.7,568.78l2-126-.33,0-2,127.1Z" transform="translate(0 2.63)"/><path class="cls-4" d="M1029.68,570l34.85-111.75c-.1-.05-.21-.08-.31-.12l-34.52,110.7Z" transform="translate(0 2.63)"/><path class="cls-1" d="M1113.39,504.68a118.59,118.59,0,0,1-7.09,9.95c1.4-1.76,2.78-3.43,4.14-5l3.48-5Z" transform="translate(0 2.63)"/><path class="cls-1" d="M1117.37,500.2l-4.76,6.85c1.81-2.08,3.58-4.05,5.3-5.89Z" transform="translate(0 2.63)"/><polygon class="cls-2" points="1081.3 554.82 1096.79 577.12 1116.14 551.78 1100.14 527.66 1081.3 554.82"/><path class="cls-2" d="M1113.39,504.68l-29.83,5.92-11.38,29.18,18.46-1.65,19.8-28.54c-1.36,1.61-2.74,3.28-4.14,5A118.59,118.59,0,0,0,1113.39,504.68Z" transform="translate(0 2.63)"/><path class="cls-2" d="M1151.74,502.56l-11.82-20.19c-6.37,3.88-13.6,9.86-21.77,18.54L1133,527.14Z" transform="translate(0 2.63)"/><path class="cls-2" d="M1112.61,507.05l-12.27,17.69,16,24.13,16.38-21.44-14.83-26.27C1116.19,503,1114.42,505,1112.61,507.05Z" transform="translate(0 2.63)"/><path class="cls-2" d="M1178,496.27c-1-5.78-3.78-12.11-8.78-16l-10.14,13.28Z" transform="translate(0 2.63)"/><path class="cls-2" d="M1142.25,515.53l31.16,6.18c3.42-8.34,5-15.69,5-21.13a26.14,26.14,0,0,0-.32-3.95l-19.21-2.82Z" transform="translate(0 2.63)"/><path class="cls-2" d="M1169,480c-6.18-4.7-15.59-5.75-28.74,2.18L1152,502.27Z" transform="translate(0 2.63)"/><path class="cls-2" d="M1115.07,428.9c-5.55-1.64-12.67-.89-21.39,3a35.09,35.09,0,0,0-10.24,7.26l19,22Z" transform="translate(0 2.63)"/><path class="cls-2" d="M1106.55,562.27l31.58,5.64A136.43,136.43,0,0,0,1158.51,547l-35.08-6.81Z" transform="translate(0 2.63)"/><path class="cls-2" d="M1077.06,526.35l-21.73-23c-3.28,14.44-5.6,29-7.22,41.7l16.82,12.4Z" transform="translate(0 2.63)"/><path class="cls-2" d="M1048.06,545.44c-2.76,21.73-3.47,37.78-3.47,37.78h10.29l9.92-25.45Z" transform="translate(0 2.63)"/><polygon class="cls-2" points="1072.04 542.77 1055.24 585.85 1059.36 585.85 1090.38 541.13 1072.04 542.77"/><path class="cls-2" d="M1127.91,442.94c-2.15-7-6.32-12-12.52-13.94l-6.29,16.12Z" transform="translate(0 2.63)"/><path class="cls-2" d="M1102.33,461.57l-19.13-22.14c-6.71,6.74-12.28,16.47-16.89,27.76L1089.69,494Z" transform="translate(0 2.63)"/><path class="cls-2" d="M1089.55,494.33l-23.38-26.79A233.73,233.73,0,0,0,1055.42,503l21.78,23Z" transform="translate(0 2.63)"/><path class="cls-2" d="M1083.71,510.22l29.94-5.94a107.55,107.55,0,0,0,13.94-32.43L1096.67,477Z" transform="translate(0 2.63)"/><polygon class="cls-2" points="1081.09 555.11 1059.76 585.85 1090.12 585.85 1096.57 577.4 1081.09 555.11"/><path class="cls-2" d="M1090.54,583.22h25.62a156.94,156.94,0,0,0,21.62-15l-31.47-5.63Z" transform="translate(0 2.63)"/><path class="cls-2" d="M1096.82,476.62l30.85-5.13c2.47-10.76,2.59-20.62.34-28.21l-19,2.2Z" transform="translate(0 2.63)"/><path class="cls-2" d="M1142,515.84l-18.34,24,35.07,6.81A109,109,0,0,0,1173.28,522Z" transform="translate(0 2.63)"/><path class="cls-3" d="M1071.94,540.15l0-.35.27,0,11.38-29.18-.09,0-.06-.34.3-.06,13-33.22h-.09l0-.34.29-.05L1109,445.48h-.1l0-.34.27,0,6.29-16.12-.32-.1-12.6,32.32.17.2-.24.23-.07-.08L1089.69,494l.18.21-.25.23-.07-.08L1077.2,526l.17.19-.23.24-.08-.08-12.13,31.1.17.12-.19.28-.11-.08-9.92,25.45h.36l16.8-43.08Z" transform="translate(0 2.63)"/><path class="cls-3" d="M1106.22,562.56l0-.34.28,0,16.88-22.11-.09,0,.06-.34.27.06,18.34-24-.09,0,.06-.34.27,0,16.59-21.72h-.09l0-.34.29,0,10.14-13.28-.27-.2-17,22.25.12.21-.28.18-.06-.1L1133,527.14l.12.21-.28.18-.06-.1-16.38,21.44.13.19-.28.2-.07-.11-19.35,25.34.13.19-.27.2-.08-.11-6.45,8.45h.42l15.77-20.65Z" transform="translate(0 2.63)"/><path class="cls-3" d="M1081,552.29l.27-.2.07.1L1100.14,525l-.14-.2.27-.2.07.11,12.27-17.69c-.71.83-1.44,1.67-2.17,2.54l-19.8,28.54h.07l0,.35-.36,0-31,44.72h.41l21.33-30.74Z" transform="translate(0 2.63)"/><polygon class="cls-3" points="1081.09 555.11 1096.57 577.4 1096.79 577.12 1081.3 554.82 1081.09 555.11"/><polygon class="cls-3" points="1096.65 577.51 1096.92 577.31 1096.79 577.12 1096.57 577.4 1096.65 577.51"/><polygon class="cls-3" points="1081.22 554.72 1080.96 554.92 1081.09 555.11 1081.3 554.82 1081.22 554.72"/><polygon class="cls-3" points="1100.14 527.66 1116.14 551.78 1116.36 551.5 1100.34 527.37 1100.14 527.66"/><polygon class="cls-3" points="1116.21 551.89 1116.49 551.69 1116.36 551.5 1116.14 551.78 1116.21 551.89"/><polygon class="cls-3" points="1100.27 527.26 1100 527.46 1100.14 527.66 1100.34 527.37 1100.27 527.26"/><path class="cls-3" d="M1132.74,527.43l.22-.29-14.81-26.23-.24.25Z" transform="translate(0 2.63)"/><polygon class="cls-3" points="1132.8 530.16 1133.08 529.99 1132.96 529.77 1132.74 530.06 1132.8 530.16"/><path class="cls-3" d="M1152,502.27l-11.75-20.07-.29.17,11.82,20.19Z" transform="translate(0 2.63)"/><polygon class="cls-3" points="1151.8 505.29 1152.08 505.11 1151.96 504.9 1151.74 505.19 1151.8 505.29"/><path class="cls-3" d="M1158.84,493.81l19.21,2.82c0-.12,0-.24,0-.36l-18.92-2.77Z" transform="translate(0 2.63)"/><polygon class="cls-3" points="1158.79 496.09 1158.75 496.43 1158.84 496.44 1159.08 496.13 1158.79 496.09"/><path class="cls-3" d="M1142,515.84l31.27,6.19c0-.11.09-.21.13-.32l-31.16-6.18Z" transform="translate(0 2.63)"/><polygon class="cls-3" points="1141.98 518.11 1141.92 518.45 1142.01 518.47 1142.25 518.16 1141.98 518.11"/><path class="cls-3" d="M1123.43,540.16l35.08,6.81.23-.3-35.07-6.81Z" transform="translate(0 2.63)"/><polygon class="cls-3" points="1123.34 542.77 1123.43 542.79 1123.67 542.49 1123.4 542.43 1123.34 542.77"/><path class="cls-3" d="M1106.31,562.57l31.47,5.63.35-.29-31.58-5.64Z" transform="translate(0 2.63)"/><polygon class="cls-3" points="1106.22 565.19 1106.31 565.21 1106.55 564.9 1106.27 564.85 1106.22 565.19"/><polygon class="cls-3" points="1072.04 542.77 1090.38 541.13 1090.64 540.76 1072.18 542.41 1072.04 542.77"/><polygon class="cls-3" points="1071.91 542.43 1071.94 542.78 1072.04 542.77 1072.18 542.41 1071.91 542.43"/><polygon class="cls-3" points="1090.74 541.1 1090.71 540.75 1090.64 540.76 1090.38 541.13 1090.74 541.1"/><path class="cls-3" d="M1064.93,557.45l-16.82-12.4c0,.13,0,.26,0,.39l16.74,12.33Z" transform="translate(0 2.63)"/><polygon class="cls-3" points="1064.91 560.48 1065.1 560.2 1064.93 560.08 1064.8 560.4 1064.91 560.48"/><path class="cls-3" d="M1077.2,526l-21.78-23-.09.39,21.73,23Z" transform="translate(0 2.63)"/><polygon class="cls-3" points="1077.14 529.06 1077.37 528.82 1077.2 528.63 1077.06 528.98 1077.14 529.06"/><path class="cls-3" d="M1113.92,504.58l.28-.4-.55.1c-.08.14-.17.27-.26.4Z" transform="translate(0 2.63)"/><path class="cls-3" d="M1083.56,510.6l29.83-5.92c.09-.13.18-.26.26-.4l-29.94,5.94Z" transform="translate(0 2.63)"/><polygon class="cls-3" points="1083.41 512.91 1083.47 513.25 1083.56 513.23 1083.71 512.85 1083.41 512.91"/><path class="cls-3" d="M1089.69,494l-23.38-26.78c0,.11-.09.23-.14.35l23.38,26.79Z" transform="translate(0 2.63)"/><polygon class="cls-3" points="1089.62 497.04 1089.87 496.81 1089.69 496.61 1089.55 496.96 1089.62 497.04"/><path class="cls-3" d="M1096.67,477l30.92-5.15c0-.12.05-.24.08-.36l-30.85,5.13Z" transform="translate(0 2.63)"/><polygon class="cls-3" points="1096.53 479.3 1096.58 479.64 1096.67 479.63 1096.82 479.25 1096.53 479.3"/><path class="cls-3" d="M1102.47,461.22l-19-22-.24.24,19.13,22.14Z" transform="translate(0 2.63)"/><polygon class="cls-3" points="1102.4 464.28 1102.64 464.05 1102.47 463.85 1102.33 464.2 1102.4 464.28"/><path class="cls-4" d="M1082.38,512a2.73,2.73,0,0,0-1.05-1.08c-5.79-3.28-16.8,17-25.81,36.68,6.92-23,13.21-48.83,7.3-51.46l-21.62,84Z" transform="translate(0 2.63)"/><path class="cls-4" d="M1062.51,496l-.13,0c-6-1.41-11.48,20.48-15.4,42.65,2-19,2.39-36.83-3.37-37.09h-.09l-2.72,78.85Z" transform="translate(0 2.63)"/><polygon class="cls-4" points="1039.7 585.92 1040.05 585.93 1040.32 584.89 1039.7 585.92"/><path class="cls-4" d="M1043.19,501.57c-11.77,1.33-6,81.61-6,81.61l2.08.09,1.11-1.84Z" transform="translate(0 2.63)"/><path class="cls-4" d="M1040.74,581.94l0,1,2.89.67.28-.79.06,0s43.33-59.13,38.61-70.53l-41.64,68.92Z" transform="translate(0 2.63)"/><path class="cls-3" d="M1041.2,580.15l21.62-84a1.66,1.66,0,0,0-.31-.12L1040.8,580.4l2.72-78.85-.33,0-2.76,79.86Z" transform="translate(0 2.63)"/><polygon class="cls-3" points="1040.91 583.9 1040.32 584.89 1040.05 585.93 1040.21 585.94 1040.69 585.6 1040.71 585.6 1040.74 584.57 1040.91 583.9"/><polygon class="cls-3" points="1040.41 584.52 1040.43 584.06 1039.32 585.9 1039.7 585.92 1040.32 584.89 1040.41 584.52"/><path class="cls-3" d="M1041.2,580.15l-.29,1.12,41.64-68.92a3.78,3.78,0,0,0-.17-.35Z" transform="translate(0 2.63)"/><polygon class="cls-3" points="1040.41 584.52 1040.32 584.89 1040.91 583.9 1041.2 582.78 1040.43 584.06 1040.41 584.52"/><polygon class="cls-3" points="540.36 575.25 540.44 575.17 540.29 574.83 540.12 575.01 540.36 575.25"/><path class="cls-3" d="M1048.06,545.44c0-.13,0-.26,0-.39" transform="translate(0 2.63)"/><path class="cls-3" d="M1083.2,439.43l.24-.24" transform="translate(0 2.63)"/><path class="cls-3" d="M1109,445.48l19-2.2c0-.12-.07-.23-.1-.34l-18.81,2.18Z" transform="translate(0 2.63)"/><polygon class="cls-3" points="1108.83 447.78 1108.86 448.12 1108.96 448.11 1109.1 447.75 1108.83 447.78"/><path class="cls-5" d="M1023.8,347.88s-4-6.62-3.21-7.77c.67-.91,2.84,3.37,2.84,3.37s-.71-4.5-1.31-6.69,2-2.87,4.13.91,1.25,10.18,1.25,10.18Z" transform="translate(0 2.63)"/><path class="cls-5" d="M849.87,415.86s-4.8-1.58-5.4,5.91c0,4.29,1.32,4.18,1.32,4.18l5.14-4.18Z" transform="translate(0 2.63)"/><path class="cls-6" d="M738.33,407.78h3.73a5.76,5.76,0,0,1,5.76,5.76V429a0,0,0,0,1,0,0H732.57a0,0,0,0,1,0,0V413.54a5.76,5.76,0,0,1,5.76-5.76Z" transform="translate(1480.39 839.38) rotate(-180)"/><path class="cls-5" d="M728,392.61a3.6,3.6,0,0,0-4,4c0,4.41,5.2,4.86,5.2,4.86Z" transform="translate(0 2.63)"/><path class="cls-5" d="M752.41,392.61a3.6,3.6,0,0,1,4,4c0,4.41-5.2,4.86-5.2,4.86Z" transform="translate(0 2.63)"/><rect class="cls-5" x="727.78" y="377.5" width="24.82" height="36.09" rx="9.37" transform="translate(1480.39 793.73) rotate(180)"/><path class="cls-7" d="M705.61,445.22c0-36.21-17.34-30.93-34.7-30.93s-16.64,30.93-16.64,30.93l-5.06,68.07c19.94,7,39.67,7.2,59.17,0Z" transform="translate(0 2.63)"/><line class="cls-5" x1="668.89" y1="400" x2="667.77" y2="391.52"/><path class="cls-6" d="M679.51,420.53h0c-4,0-7.33-.11-7.33-4.33V403.47h14.65V416.2C686.83,420.42,683.55,420.53,679.51,420.53Z" transform="translate(0 2.63)"/><rect class="cls-5" x="667.58" y="374.38" width="23.86" height="34.68" rx="9.01" transform="translate(1359.02 786.07) rotate(-180)"/><path class="cls-4" d="M1013.74,445.22c0-36.21-17.34-30.93-34.71-30.93s-16.64,30.93-16.64,30.93L959,507q28.29,11.79,56.57,0Z" transform="translate(0 2.63)"/><path class="cls-5" d="M975.9,388.89A3.46,3.46,0,0,0,972,392.7c0,4.24,5,4.67,5,4.67Z" transform="translate(0 2.63)"/><path class="cls-5" d="M999.37,388.89a3.46,3.46,0,0,1,3.88,3.81c0,4.24-5,4.67-5,4.67Z" transform="translate(0 2.63)"/><path class="cls-6" d="M987.63,421h0c-4,0-7.32-.56-7.32-4.78V403.47H995V416.2C995,420.42,991.68,421,987.63,421Z" transform="translate(0 2.63)"/><rect class="cls-5" x="975.7" y="374.38" width="23.86" height="34.68" rx="9.01" transform="translate(1975.26 786.07) rotate(180)"/><path class="cls-8" d="M860.9,418.37s-17.18-1.17-20.24,18.86c-3.68,24.12,9.65,26.88-3.68,63.26h49.27S875.32,487.28,884,457.1,874.5,418.37,860.9,418.37Z" transform="translate(0 2.63)"/><path class="cls-6" d="M862,426.12h0c-4.21,0-7.62-.71-7.62-5.1V407.78H869.6V421C869.6,425.41,866.18,426.12,862,426.12Z" transform="translate(0 2.63)"/><line class="cls-5" x1="850.93" y1="404.06" x2="849.76" y2="395.24"/><path class="cls-5" d="M862,413.59h0c-6.82,0-12.41-5.82-12.41-12.94V390.44c0-7.11,5.59-12.94,12.41-12.94h0c6.83,0,12.42,5.83,12.42,12.94v10.21C874.39,407.77,868.8,413.59,862,413.59Z" transform="translate(0 2.63)"/><path class="cls-9" d="M612.16,432.09S595.93,431,593,449.91c-3.49,22.79,9.11,25.4-3.49,59.77h46.56s-10.33-12.48-2.1-41S625,432.09,612.16,432.09Z" transform="translate(0 2.63)"/><path class="cls-6" d="M613.17,442.11h0a7.36,7.36,0,0,1-7.2-7.51V422.08h14.4V434.6A7.36,7.36,0,0,1,613.17,442.11Z" transform="translate(0 2.63)"/><path class="cls-5" d="M601.63,407.75a3.4,3.4,0,0,0-3.81,3.74c0,4.17,4.91,4.59,4.91,4.59Z" transform="translate(0 2.63)"/><path class="cls-5" d="M624.71,407.75a3.4,3.4,0,0,1,3.81,3.74c0,4.17-4.91,4.59-4.91,4.59Z" transform="translate(0 2.63)"/><path class="cls-5" d="M613.17,427.58h0a12,12,0,0,1-11.73-12.23v-9.64a12,12,0,0,1,11.73-12.23h0a12,12,0,0,1,11.73,12.23v9.64A12,12,0,0,1,613.17,427.58Z" transform="translate(0 2.63)"/><path class="cls-3" d="M920.7,415s-17.71-1.21-20.86,19.43c-3.8,24.87,9.94,27.71-3.8,65.2h50.78s-11.26-13.61-2.28-44.72S934.71,415,920.7,415Z" transform="translate(0 2.63)"/><path class="cls-6" d="M921.8,426h0a8,8,0,0,1-7.85-8.19V404.11h15.71v13.65A8,8,0,0,1,921.8,426Z" transform="translate(0 2.63)"/><path class="cls-5" d="M909.22,388.47a3.71,3.71,0,0,0-4.16,4.09c0,4.54,5.36,5,5.36,5Z" transform="translate(0 2.63)"/><path class="cls-5" d="M934.39,388.47a3.71,3.71,0,0,1,4.16,4.09c0,4.54-5.36,5-5.36,5Z" transform="translate(0 2.63)"/><path class="cls-5" d="M921.8,410.1h0c-7,0-12.79-6-12.79-13.34V386.24c0-7.33,5.76-13.34,12.79-13.34h0c7,0,12.8,6,12.8,13.34v10.52C934.6,404.1,928.84,410.1,921.8,410.1Z" transform="translate(0 2.63)"/><path class="cls-10" d="M828.63,440.84c0-36.92-17.68-31.53-35.39-31.53s-17,31.53-17,31.53l-3.45,63a83.4,83.4,0,0,0,57.68,0Z" transform="translate(0 2.63)"/><path class="cls-6" d="M802,416.19h0c-4.12,0-7.47-.63-7.47-4.94v-13h14.94v13C809.48,415.56,806.14,416.19,802,416.19Z" transform="translate(0 2.63)"/><path class="cls-5" d="M802,404h0a12.46,12.46,0,0,1-12.16-12.68v-10A12.46,12.46,0,0,1,802,368.61h0a12.47,12.47,0,0,1,12.17,12.68v10A12.47,12.47,0,0,1,802,404Z" transform="translate(0 2.63)"/><path class="cls-3" d="M729.94,420.53s-9.82,3.54-27.27,18.41-30.48,16.49-30.48,16.49l.11,11.38s32.49-4.2,55.19-27.71" transform="translate(0 2.63)"/><path class="cls-9" d="M605.52,434.65s-23-15.11-26.69-58.74c-3.23,0-3.6,0-3.6,0s-5,54,18.26,80.31" transform="translate(0 2.63)"/><path class="cls-9" d="M620.37,433.23s10.4,0,31.55,8.1,33.66,3.29,33.66,3.29l1.69,3.31s-29.92,16.48-58.75,2" transform="translate(0 2.63)"/><path class="cls-3" d="M770,543.3a150.45,150.45,0,0,1-60.67,0,183.22,183.22,0,0,1,8.77-57A52.11,52.11,0,0,0,720,460.58c-1.23-6.74-2.72-13.13-1.16-23.35,3.06-20,20.24-18.86,20.24-18.86,13.6,0,31.85,8.55,23.13,38.73-.15.52-.29,1-.43,1.54a53.6,53.6,0,0,0,1.08,30.67C770.87,513.8,770,543.3,770,543.3Z" transform="translate(0 2.63)"/><path class="cls-3" d="M749.93,420.53s9.83,3.54,27.28,18.41,30.39,14.12,30.39,14.12v11.52s-32.52-2-55.21-25.48" transform="translate(0 2.63)"/><path class="cls-7" d="M672.18,414.28s-12.6-1.36-36,17.41c-22.61,15.38-43,5-43,5l-1.38,3.47s10.44,15.89,32.41,13.35a89.34,89.34,0,0,0,38.14-14.23Z" transform="translate(0 2.63)"/><path class="cls-8" d="M868.36,419s10.16,2.29,29.19,14.88,33.82,11.45,33.82,11.45l-.68,4.85s-32.53,7.46-57.76-13.05" transform="translate(0 2.63)"/><path class="cls-7" d="M686.83,414.08s10.9-3.61,37,10.68c24.82,11.09,43.17-2.17,43.17-2.17l3,4.56s-8.71,15.51-30.76,17a88.22,88.22,0,0,1-39.92-7.16Z" transform="translate(0 2.63)"/><path class="cls-8" d="M849.09,421.77s-8.47,6.29-21.2,25.67-26.24,23-26.24,23l2.14,6.72s32.53-7.62,48-36.84" transform="translate(0 2.63)"/><path class="cls-10" d="M809.39,409s12.67-1.26,34.09,19.91c21,17.72,41.89,9.42,41.89,9.42l1.69,7.38s-12.22,11.06-33.82,6.18A90.26,90.26,0,0,1,816.7,433.7Z" transform="translate(0 2.63)"/><path class="cls-10" d="M793.24,409.31s-13.13-.28-34.55,20.89c-21,17.72-41.89,9.33-41.89,9.33l-2.5,6.31s13,12.21,34.63,7.34A90.35,90.35,0,0,0,785.47,435Z" transform="translate(0 2.63)"/><path class="cls-4" d="M977,414.62s-12.67.13-33.87,21.54c-17.58,20.27-40.72,10.92-40.72,10.92l-.88,3.7s10.53,13.59,32.08,8.47A90.32,90.32,0,0,0,970,440.62Z" transform="translate(0 2.63)"/><path class="cls-4" d="M995,414.19s24.72-15.82,28.82-65h3.72s16.28,31.21-19,89.16" transform="translate(0 2.63)"/><path class="cls-3" d="M929.66,415.75s10.37.8,30.89,10.51,34,5.46,34,5.46l1.38,3.47S972,449.88,936.6,433" transform="translate(0 2.63)"/><path class="cls-3" d="M914,416s-10.24-2.37-32.42,1.82c-16.26,3.08-27.06-.09-31.66-2a2.92,2.92,0,0,0-3.79,1.58h0a3.17,3.17,0,0,0,1.18,4c7.23,4.42,30.43,16.6,55.91,9.06" transform="translate(0 2.63)"/><path class="cls-11" d="M613.17,390.25A16.91,16.91,0,0,0,597.82,402c-4,11.78-14.65,21.12-6.7,27s2,17.47,18.47,19.88,18.93-8.83,18.93-18.73,7.38-7.21,4.43-19.59S620.47,390.25,613.17,390.25Z" transform="translate(0 2.63)"/><path class="cls-9" d="M679.16,373s-11-.29-13.87,13.3,6.11,25.62,14.22,25.62,15.55-9.22,14.14-25S679.16,373,679.16,373Z" transform="translate(0 2.63)"/><path class="cls-11" d="M866.72,374.09c7.45-8.32-10.28-10.65-11.63-4.38-.14.63.87,4.7,1.8,4.38,0,0-12.35,4.21-10.27,20.19.73,5.62,2.25,12.31,7,16.38a13.56,13.56,0,0,0,16,.64c5.36-3.83,6.7-11.24,7.46-17C879.08,378.29,866.72,374.09,866.72,374.09Z" transform="translate(0 2.63)"/><path class="cls-9" d="M938.93,386.76c-4.34-20.45-32.22-19.42-35.49,1.25a60.41,60.41,0,0,0-.69,9.44v46.16c13.09,3.54,25.55,3.49,37.42,0V397.93A56.39,56.39,0,0,0,938.93,386.76Z" transform="translate(0 2.63)"/><path class="cls-12" d="M997.8,372.31c-3.4-6.94-17.26-7-20.69,0-2.85,5.8-9.58,7.18-8.3,16.36s6.18,9.46,8.3,15.5c3.15,8.95,17.55,8.95,20.69,0,2.13-6,7-6.33,8.3-15.5S1000.65,378.11,997.8,372.31Z" transform="translate(0 2.63)"/><path class="cls-5" d="M578.83,375.91s1.22-7.71.08-8.46c-1-.57-1.36,4.26-1.36,4.26s-1-4.44-1.28-6.7-2.9-1.85-3.48,2.51,2.44,8.41,2.44,8.41Z" transform="translate(0 2.63)"/><path class="cls-5" d="M593.19,436.69s-6.34-4.16-7.45-3.36c-.87.71,3.24,3,3.24,3s-4.32-.73-6.42-1.36-2.76,2.07.87,4.31,8.38.92,8.38.92Z" transform="translate(0 2.63)"/><path class="cls-5" d="M672.19,455.43s-7.41-1.13-8.11.07c-.53,1,4.1,1.35,4.1,1.35s-4.24,1.15-6.4,1.45-1.72,3.06,2.47,3.58a15.4,15.4,0,0,0,8-1.51Z" transform="translate(0 2.63)"/><path class="cls-5" d="M685.58,444.62s5.93-4.77,7.1-4.08c.94.61-2.94,3.26-2.94,3.26s4.23-1.16,6.26-2,2.93,1.78-.47,4.37-8.26,1.75-8.26,1.75Z" transform="translate(0 2.63)"/><path class="cls-5" d="M716.8,439.53s-6.34-4.16-7.44-3.35c-.88.7,3.23,3,3.23,3s-4.32-.74-6.42-1.37-2.75,2.07.87,4.31,8.38.92,8.38.92Z" transform="translate(0 2.63)"/><path class="cls-5" d="M801.65,470.43s-7.4,1.18-7.73,2.54c-.23,1.14,4.3,0,4.3,0s-3.73,2.39-5.71,3.34-.79,3.44,3.36,2.67,6.92-5,6.92-5Z" transform="translate(0 2.63)"/><path class="cls-5" d="M807.6,453.06s6.9-3.06,7.86-2.08c.76.84-3.64,2.39-3.64,2.39s4.38,0,6.54-.29,2.41,2.5-1.51,4.11-9.25.61-9.25.61Z" transform="translate(0 2.63)"/><path class="cls-5" d="M885.37,438.36s6.9-3.06,7.86-2.08c.76.84-3.64,2.39-3.64,2.39s4.38,0,6.54-.29,2.41,2.5-1.51,4.11-8.42-.48-8.42-.48Z" transform="translate(0 2.63)"/><path class="cls-5" d="M901.18,446.65s-6.89-3.06-7.86-2.08c-.76.84,3.64,2.38,3.64,2.38s-4.38,0-6.54-.28-2.41,2.49,1.51,4.11,8.42-.48,8.42-.48Z" transform="translate(0 2.63)"/><path class="cls-5" d="M994.58,431.72s6.34-4.16,7.45-3.35c.87.7-3.24,3-3.24,3s4.32-.74,6.42-1.37,2.75,2.07-.87,4.31-8.38.92-8.38.92Z" transform="translate(0 2.63)"/><path class="cls-11" d="M595.28,483.9S578,523.57,578,571.47c12.29,5.94,57.11,3.95,64.68,0,0,0,1.6-64.32-11.62-87.57C631.07,483.9,617.27,488.41,595.28,483.9Z" transform="translate(0 2.63)"/><path class="cls-11" d="M943.1,460.5a97.12,97.12,0,0,1-41.75-.12s-9.82,35.63-9.82,81.69c14.84,5.28,51.73,2.52,60,0C951.55,542.07,950.82,482.38,943.1,460.5Z" transform="translate(0 2.63)"/><path class="cls-4" d="M670.91,414.29l1.27-.62s0,6.39,7.33,6.39,7.33-6.66,7.33-6.66l1.12.45s1.26,8.44-8.45,8.44S670.91,414.29,670.91,414.29Z" transform="translate(0 2.63)"/><path class="cls-3" d="M794.54,407.78S795,415,802,415s7.47-7.48,7.47-7.48l2.24,1.68s.11,8.59-9.71,8.59-9.81-8.38-9.81-8.38Z" transform="translate(0 2.63)"/><path class="cls-11" d="M720.77,472.62l-.28,3.19s17,6,39.73,0l-.14-3.19C737.69,477.7,720.77,472.62,720.77,472.62Z" transform="translate(0 2.63)"/><path class="cls-13" d="M778.77,440.24s10.79-10.61.74-26.22" transform="translate(0 2.63)"/><path class="cls-13" d="M828.05,441.69s-15.36-6.88-2.52-27.07" transform="translate(0 2.63)"/><path class="cls-13" d="M655.73,520.88l18.4,3.66s1.29,15-10.31,15S655.73,520.88,655.73,520.88Z" transform="translate(0 2.63)"/><path class="cls-13" d="M701.86,520.88l-18.4,3.66s-1.29,15,10.31,15S701.86,520.88,701.86,520.88Z" transform="translate(0 2.63)"/><path class="cls-13" d="M962.81,502.73s26.82,8.14,48.88,0" transform="translate(0 2.63)"/><path class="cls-14" d="M857.6,374.22s3.56,2.8,8.39,0" transform="translate(0 2.63)"/><path class="cls-3" d="M840.09,491s22.16,6.1,42,0l.49,1.76s-6.65,3.61-21.24,3.61-21.77-3.61-21.77-3.61Z" transform="translate(0 2.63)"/><polygon class="cls-11" points="848.88 498.84 848.88 495.32 850.55 495.55 850.55 499.24 848.88 498.84"/><polygon class="cls-11" points="873.18 498.98 873.18 495.58 871.67 495.78 871.67 498.98 873.18 498.98"/><path class="cls-3" d="M639.24,572.62l-.37.09c0-59-10.65-87.8-10.76-88.08l.34-.07C628.55,484.84,639.24,513.54,639.24,572.62Z" transform="translate(0 2.63)"/><path class="cls-15" d="M656.74,419.71s4.41,9.25,0,21.69" transform="translate(0 2.63)"/><path class="cls-15" d="M702.36,436.89s-4.7-8.44,0-20" transform="translate(0 2.63)"/><line class="cls-15" x1="805.4" y1="473.06" x2="807.6" y2="478.65"/><path class="cls-11" d="M747.1,376a16.39,16.39,0,0,0-13.31,1.2,21.28,21.28,0,0,0-6.51,5.32v-.05a57.88,57.88,0,0,0-5.43,7.89c-1.65,3.27-11.58,12.67-10.13,21.62a15.1,15.1,0,0,1,2.66-7c-.94,2.37-1,5,.81,8.6,3.85-5.95,14,2.48,30.67,2.48C760.89,416.07,765.25,382.69,747.1,376Z" transform="translate(0 2.63)"/><path class="cls-12" d="M816.71,377.5c0-4.67-3.59-7.37-7.22-8.89-5.13-2.16-11-2.14-15.7.86a12.58,12.58,0,0,0-5.8,8.63h0v.15a15.93,15.93,0,0,0-.25,2.77c0,2.52.06,4.9.15,7.11L787.71,404l.86-3.12V404h26.82s.11-1.14.43-6.21l.89,6.21Z" transform="translate(0 2.63)"/><path class="cls-10" d="M969,417s2.8-6,9.44-4.72,7.64,4.22,11.62,2.39,6-4.52,9.5-4.52c0,10.54-1.32,18.61-10.49,20.35S978.22,415.91,969,417Z" transform="translate(0 2.63)"/><polygon class="cls-10" points="900.35 452.93 901.18 449.28 902.42 449.71 901.54 453.41 900.35 452.93"/><rect class="cls-10" x="1023.78" y="350.51" width="3.72" height="1.33"/><rect class="cls-1" x="392.95" y="51.29" width="789.52" height="513.72"/><path class="cls-16" d="M405.8,554.72v43h789.53v-43C849.33,600.92,663.13,509.53,405.8,554.72Z" transform="translate(0 2.63)"/><path class="cls-16" d="M475.38,356.28H543s-3.52-17.64-23.25-11.76c-19-19.84-32.42-1.2-32.42-1.2S475.38,342.32,475.38,356.28Z" transform="translate(0 2.63)"/><path class="cls-16" d="M1069,326.41h67.65s-3.52-17.63-23.25-11.75c-19-19.84-32.42-1.2-32.42-1.2S1069,312.45,1069,326.41Z" transform="translate(0 2.63)"/><path class="cls-16" d="M993.46,290.11h52.25s-5-13.57-18.34-7.8C1018.29,266.64,993.46,272.31,993.46,290.11Z" transform="translate(0 2.63)"/></g><g id="Layer_1" data-name="Layer 1"><path class="cls-17" d="M0,0C111.5,58,150.25,120,162.79,170.09c16.67,66.52-8.54,129.36,31,160.92,20.78,16.58,34,4.24,89.65,13.79,89.52,15.37,151,63.7,169,78.17,51.64,41.56,35.74,53.5,77,80.46,57.25,37.4,134,44.57,196.55,25.28,55.25-17,49.45-39.25,98.85-51.72,73.17-18.47,103.79,25.78,186.21,27.58,81.47,1.79,80.23-40.82,193.1-66.66,137.19-31.41,211.31,15,244.83-32.19,18.11-25.47,12.07-63.34,0-139.08-11.75-73.73-25.91-74.72-23-111.49C1431.64,84.38,1490.12,12.32,1558.2,0c9.25-1.68,27.46-5,41.8,0V600H0C4.56,407.89,0,160.29,0,0Z" transform="translate(0 2.63)"/></g></svg>