<?xml version="1.0" encoding="utf-8"?>
<!-- Generator: Adobe Illustrator 24.1.3, SVG Export Plug-In . SVG Version: 6.00 Build 0)  -->
<svg version="1.1" id="Layer_1" xmlns:serif="http://www.serif.com/"
	 xmlns="http://www.w3.org/2000/svg" xmlns:xlink="http://www.w3.org/1999/xlink" x="0px" y="0px" viewBox="0 0 500 500"
	 style="enable-background:new 0 0 500 500;" xml:space="preserve">
<style type="text/css">
	.st0{fill:#2A3F90;}
</style>
<g transform="matrix(1,0,0,1,-73.6,-73.1)">
	<path id="y_2_" class="st0" d="M573.2,276.3h-26l-15,63.5l-2.1,8.7c-1.5,0.4-2.9,0.8-4.4,1.1c-2.6,0.5-5.4,0.8-8.3,0.8
		c-3.3,0-5.9-0.5-7.9-1.5c-1.8-0.9-3.3-2.2-4.1-4.1c-0.8-1.7-1.1-3.8-0.9-6.2c0.1-2.4,0.7-5,1.3-7.7l7.9-33l5.1-21.9h-26.5l-12,50.7
		c-1.5,6.1-2.2,11.9-2.5,17.4c-0.3,5.5,0.7,10.3,2.5,14.6c1.8,4.2,5.1,7.5,9.6,10c4.5,2.5,10.9,3.7,19.1,3.7
		c5.7,0,10.7-0.5,14.9-1.5c0.1,0,0.4-0.1,0.5-0.1c-1.2,5.3-3.6,9.5-7.3,12.8c-3.8,3.3-9.4,5-16.8,5c-3.2,0-6.1-0.1-8.7-0.5
		l-5.1,21.5c3.4,0.4,7.3,0.7,11.5,0.7c7.9,0,14.8-0.9,20.7-2.6c5.9-1.8,10.9-4.5,15.3-8.2c4.2-3.7,7.8-8.3,10.7-13.7
		c2.9-5.5,5.1-12,6.9-19.7l17.9-75.5L573.2,276.3z"/>
	<path id="a_2_" class="st0" d="M464.4,330.5c-1.6,6.6-2.1,13.3-1.5,19.9c0.7,6.7,3.3,16.9,5.8,22h-25.1c-3-5.1-2.9-7.7-3.6-9.2
		c-3.3,2.6-6.9,4.9-10.8,6.6c-4,1.7-8.3,2.6-13.3,2.6c-5.8,0-10.8-1.1-14.9-3c-4.1-2-7.5-4.7-10.2-8.2s-4.5-7.4-5.7-12
		c-1.2-4.6-1.7-9.5-1.7-14.8c0-8,1.5-15.6,4.2-22.7c2.9-7.1,6.9-13.3,11.9-18.6c5-5.3,17.3-17,37.3-17c8.7,0,20.3,0,40.2,0
		L464.4,330.5z M446,298.2c-12.1,0-14.4,0-19.4,2.5c-3.6,1.8-6.5,4.6-9,7.8c-2.5,3.2-4.6,6.9-6.1,11.1c-1.5,4.2-2.2,8.6-2.2,13.1
		c0,5.5,0.9,10,2.8,13.3c1.8,3.3,5.3,4.9,10.3,4.9c2.6,0,5.1-0.5,7.3-1.6c2.1-1.1,4.5-2.8,6.9-5.3c0.3-2.9,0.7-5.9,1.2-9.1
		c0.5-3.2,1.2-6.2,1.7-8.8L446,298.2"/>
	<path id="p_2_" class="st0" d="M376.4,314.4c0,8.6-1.5,16.4-4.2,23.5c-2.8,7.1-6.7,13.2-11.7,18.3c-5,5.1-10.9,9.1-17.9,12
		c-7,2.9-14.5,4.4-22.7,4.4c-4,0-7.9-0.4-12-1.1l-7.9,31.8h-26l30.2-126.9c4.4,0,27.6,0,34.7,0c6.6,0,12.3,1.1,16.9,3
		c4.7,2,8.6,4.7,11.7,8.2c3,3.4,5.3,7.5,6.7,12.1C375.7,304.2,376.4,309.1,376.4,314.4z M312.7,350.4c2,0.5,4.5,0.7,7.4,0.7
		c4.6,0,8.7-0.8,12.5-2.5c3.7-1.7,7-4.1,9.6-7.1c2.6-3,4.6-6.7,6.2-10.9c1.5-4.2,2.2-9,2.2-14.1c0-5-1.1-9.4-3.3-12.8
		c-2.2-3.6-6.1-5.4-11.6-5.4c-3.8,0-10.3,0-10.3,0L312.7,350.4z"/>
	<path id="t_2_" class="st0" d="M258,350.4c-3.3,0-5.9-0.5-7.9-1.5c-1.8-0.9-3.3-2.2-4.1-4.1c-0.8-1.7-1.1-3.8-0.9-6.2
		c0.1-2.4,0.7-5,1.3-7.7l7.9-33h29.6l5.4-21.9h-29.7l6.9-27.7l-27.7,4.4l-17.5,74.1c-1.5,6.1-2.2,11.9-2.5,17.4
		c-0.3,5.5,0.7,10.3,2.5,14.6c1.8,4.2,5.1,7.5,9.6,10c4.5,2.5,10.9,3.7,19.1,3.7c5.7,0,10.7-0.5,14.9-1.5c0.4-0.1,1.1-0.3,1.5-0.4
		l5.4-22.6c-1.8,0.7-3.7,1.1-5.4,1.3C263.7,350.1,260.9,350.4,258,350.4z"/>
	<path id="i_bottom_6_" class="st0" d="M191.9,276.3l-23,96.3h26l22.8-96.3H191.9z"/>
	<path id="i_top_2_" class="st0" d="M220.6,265.2l4-16.8h-26l-4,16.8H220.6z"/>
	<path id="b_2_" class="st0" d="M134.4,276.4c5.5,0,10.4,1.1,14.5,3c4.1,2,7.4,4.6,10.2,8c2.6,3.4,4.6,7.4,5.9,11.9
		c1.3,4.5,2,9.4,2,14.6c0,8-1.5,15.6-4.5,22.8c-3,7.1-7,13.5-12.1,18.7c-5.1,5.3-11.2,9.5-18.2,12.5c-7,3-14.5,4.6-22.7,4.6
		c-1.1,0-2.9,0-5.5-0.1c-2.6,0-5.7-0.3-9-0.8c-3.4-0.5-7-1.2-10.7-2.1c-3.8-0.9-7.4-2.2-10.7-3.8l30.2-126.9l27-4.2l-10.7,45
		c2.4-1.1,4.5-1.8,6.9-2.4C129.3,276.7,131.8,276.4,134.4,276.4z M111.7,351.1c4.1,0,7.9-0.9,11.5-3c3.6-2,6.7-4.6,9.4-7.9
		s4.7-7.1,6.2-11.2c1.5-4.2,2.2-8.6,2.2-13.1c0-5.5-0.9-9.9-2.8-13.1c-1.8-3.2-5.7-4.6-10.7-4.6c-1.6,0-3.3,0.1-5.9,0.8
		c-2.6,0.5-4.9,1.8-7,3.7l-11.3,47.9C106.7,351.1,110.4,351.1,111.7,351.1z"/>
</g>
</svg>
